<svg width="144" height="149" viewBox="0 0 144 149" fill="none" xmlns="http://www.w3.org/2000/svg">
<path d="M126.55 57.0789C126.55 67.7702 123.13 78.1812 116.79 86.7897C110.45 95.3983 101.523 101.753 91.3126 104.925C81.1026 108.097 70.1457 107.919 60.0438 104.418C49.9419 100.918 41.2248 94.2771 35.1668 85.4677C29.1088 76.6584 26.0277 66.1421 26.3739 55.4564C26.7202 44.7707 30.4756 34.476 37.0911 26.0773C43.7066 17.6786 52.8354 11.6163 63.1427 8.77684C73.4501 5.93737 84.3954 6.46956 94.3787 10.2956L76.449 57.0789H126.55Z" fill="#FFDE5A"/>
<path d="M92.7343 9.95934C85.0258 8.60066 77.1162 9.33583 69.8086 12.0902C62.501 14.8446 56.0555 19.52 51.1267 25.642C46.1978 31.7639 42.961 39.1143 41.7449 46.9468C40.5288 54.7794 41.3767 62.8152 44.2025 70.2386C47.0283 77.6619 51.7314 84.2083 57.8343 89.2132C63.9372 94.2181 71.2226 97.5033 78.9508 98.7352C86.679 99.9671 94.5749 99.1019 101.837 96.2274C109.099 93.3529 115.468 88.5715 120.298 82.3685L85.4886 54.2879L92.7343 9.95934Z" fill="#211F1E"/>
<path d="M51.4576 64.8543C58.6444 87.4032 82.0412 99.9393 103.716 92.8546C113.043 89.8057 120.532 83.6199 125.464 75.7647L94.8333 9.50592C89.2174 8.82766 83.3939 9.33323 77.6897 11.1978C56.0152 18.2825 44.2707 42.3054 51.4576 64.8543Z" fill="#FBFAF4"/>
<path d="M76.1526 41.4909L75.8841 41.9479C75.5893 41.6814 75.7155 41.524 76.1526 41.4909L94.8181 9.72226L97.3529 13.2698C128.024 18.9245 141.899 40.7005 125.115 75.0695L117.348 79.9671L91.6093 67.1746C91.6093 67.1746 94.7012 54.6967 90.5819 49.4625C85.9555 43.5839 78.0681 41.3455 76.1526 41.4909Z" fill="#211F1E"/>
<circle cx="83.4523" cy="54.5037" r="15.633" transform="rotate(-15.2269 83.4523 54.5037)" fill="#FBFAF4"/>
<circle cx="83.4482" cy="54.3741" r="8.13482" transform="rotate(-7.46573 83.4482 54.3741)" fill="#211F1E"/>
<path d="M3.1938 129.027H10.7504L12.2325 131.771H3.00593C1.97612 131.771 1.16201 131.383 0.563611 130.607C0.18787 130.122 0 129.581 0 128.985V115.973H3.1938V129.027Z" fill="#FBFAF4"/>
<path d="M13.3388 115.973H16.5535V125.764C16.5535 126.858 16.9501 127.731 17.7433 128.383C18.2582 128.812 18.8358 129.027 19.4759 129.027H21.1876C22.1478 129.027 22.9202 128.604 23.5047 127.759C23.9222 127.163 24.1309 126.498 24.1309 125.764V115.973H27.3247V125.764C27.3247 127.454 26.7124 128.888 25.4878 130.066C24.277 131.202 22.8437 131.771 21.1876 131.771H19.4759C17.7503 131.771 16.2821 131.161 15.0714 129.941C13.9163 128.777 13.3388 127.385 13.3388 125.764V115.973Z" fill="#FBFAF4"/>
<path d="M33.3783 115.87C34.5473 115.87 35.4936 116.549 36.2172 117.907C36.3286 118.128 36.4469 118.378 36.5721 118.655L41.0184 129.089V115.973H44.2122V129.089C44.2122 129.976 43.7877 130.704 42.9388 131.272C42.3404 131.674 41.6933 131.875 40.9975 131.875C39.8285 131.875 38.8822 131.196 38.1586 129.838C38.0472 129.616 37.929 129.366 37.8037 129.089L33.3574 118.655V131.771H30.1636V118.655C30.1636 117.768 30.5881 117.04 31.437 116.472C32.0354 116.07 32.6825 115.87 33.3783 115.87Z" fill="#FBFAF4"/>
<path d="M57.3422 129.671H50.391L52.1027 126.928H56.382L53.6683 119.174L49.2429 131.771H45.8195L50.4745 118.551C51.1564 116.708 52.221 115.779 53.6683 115.766C55.1156 115.779 56.1733 116.708 56.8412 118.551L61.5171 131.771H58.0937L57.3422 129.671Z" fill="#FBFAF4"/>
<path d="M66.4853 118.717V131.771H63.2915V118.759C63.2915 117.816 63.695 117.068 64.5022 116.514C65.0449 116.154 65.6433 115.973 66.2974 115.973H70.6184C72.5528 115.973 74.1045 116.549 75.2734 117.699C76.2615 118.683 76.7555 119.895 76.7555 121.336V121.939C76.7555 123.74 76.0388 125.14 74.6054 126.138C74.0627 126.512 73.4643 126.796 72.8102 126.99L77.1104 131.771H73.1234L69.1572 127.302H66.694L68.4057 124.558H70.6184C71.9266 124.558 72.8102 124.108 73.2695 123.207C73.4504 122.833 73.5408 122.41 73.5408 121.939V121.336C73.5408 120.089 72.9772 119.278 71.85 118.904C71.4743 118.78 71.0637 118.717 70.6184 118.717H66.4853Z" fill="#FBFAF4"/>
<path d="M89.0297 129.027H96.5863L98.0684 131.771H88.8419C87.812 131.771 86.9979 131.383 86.3995 130.607C86.0238 130.122 85.8359 129.581 85.8359 128.985V115.973H89.0297V129.027Z" fill="#FBFAF4"/>
<path d="M102.327 125.327V129.027H110.51L112.013 131.771H102.139C101.123 131.771 100.309 131.39 99.6966 130.627C99.3069 130.129 99.1121 129.581 99.1121 128.985V118.759C99.1121 117.83 99.5157 117.089 100.323 116.535C100.866 116.161 101.471 115.973 102.139 115.973H112.013L110.51 118.717H102.327V122.583H109.862V125.327H102.327Z" fill="#FBFAF4"/>
<path d="M124.475 129.671H117.523L119.235 126.928H123.514L120.801 119.174L116.375 131.771H112.952L117.607 118.551C118.289 116.708 119.353 115.779 120.801 115.766C122.248 115.779 123.306 116.708 123.974 118.551L128.65 131.771H125.226L124.475 129.671Z" fill="#FBFAF4"/>
<path d="M133.618 118.717V131.771H130.424V118.759C130.424 117.816 130.827 117.068 131.635 116.514C132.177 116.154 132.776 115.973 133.43 115.973H137.751C139.685 115.973 141.237 116.549 142.406 117.699C143.394 118.683 143.888 119.895 143.888 121.336V121.939C143.888 123.727 143.171 125.126 141.738 126.138C140.625 126.914 139.296 127.302 137.751 127.302H133.826L135.538 124.558H137.751C139.059 124.558 139.943 124.108 140.402 123.207C140.583 122.833 140.673 122.41 140.673 121.939V121.336C140.673 120.089 140.11 119.278 138.982 118.904C138.607 118.78 138.196 118.717 137.751 118.717H133.618Z" fill="#FBFAF4"/>
<path d="M32.5279 142.29C32.7201 142.29 32.9342 142.299 33.1701 142.316C33.406 142.334 33.6463 142.364 33.8909 142.408C34.1443 142.452 34.3758 142.513 34.5855 142.591L34.4413 143.312C34.153 143.286 33.8472 143.269 33.5239 143.26C33.2094 143.242 32.9386 143.234 32.7114 143.234C32.2046 143.234 31.8027 143.303 31.5057 143.443C31.2086 143.583 30.9946 143.828 30.8635 144.177C30.7325 144.527 30.6669 145.012 30.6669 145.632C30.6669 146.252 30.7325 146.741 30.8635 147.1C30.9946 147.449 31.2086 147.694 31.5057 147.834C31.8027 147.973 32.2046 148.043 32.7114 148.043C32.8424 148.043 33.0128 148.039 33.2225 148.03C33.4322 148.021 33.655 148.008 33.8909 147.991C34.1355 147.973 34.3671 147.947 34.5855 147.912L34.7034 148.659C34.3802 148.773 34.0263 148.856 33.6419 148.908C33.2662 148.961 32.8905 148.987 32.5148 148.987C31.7809 148.987 31.1911 148.878 30.7456 148.659C30.3 148.441 29.9767 148.087 29.7757 147.598C29.5835 147.108 29.4874 146.453 29.4874 145.632C29.4874 144.811 29.5879 144.155 29.7889 143.666C29.9898 143.177 30.3131 142.827 30.7587 142.618C31.2043 142.399 31.794 142.29 32.5279 142.29Z" fill="#FBFAF4"/>
<path d="M38.8113 142.29C39.5452 142.29 40.1306 142.399 40.5674 142.618C41.013 142.836 41.3319 143.194 41.5241 143.692C41.7164 144.182 41.8125 144.832 41.8125 145.645C41.8125 146.458 41.7164 147.113 41.5241 147.611C41.3319 148.1 41.013 148.454 40.5674 148.672C40.1306 148.891 39.5452 149 38.8113 149C38.0861 149 37.5007 148.891 37.0552 148.672C36.6183 148.454 36.2994 148.1 36.0985 147.611C35.9062 147.113 35.8101 146.458 35.8101 145.645C35.8101 144.832 35.9062 144.182 36.0985 143.692C36.2994 143.194 36.6183 142.836 37.0552 142.618C37.5007 142.399 38.0861 142.29 38.8113 142.29ZM38.8113 143.234C38.3482 143.234 37.9813 143.308 37.7104 143.456C37.4483 143.596 37.2605 143.841 37.1469 144.19C37.0333 144.54 36.9765 145.025 36.9765 145.645C36.9765 146.265 37.0333 146.75 37.1469 147.1C37.2605 147.449 37.4483 147.698 37.7104 147.847C37.9813 147.987 38.3482 148.056 38.8113 148.056C39.2744 148.056 39.6413 147.987 39.9122 147.847C40.183 147.698 40.3752 147.449 40.4888 147.1C40.6024 146.75 40.6592 146.265 40.6592 145.645C40.6592 145.025 40.6024 144.54 40.4888 144.19C40.3752 143.841 40.183 143.596 39.9122 143.456C39.6413 143.308 39.2744 143.234 38.8113 143.234Z" fill="#FBFAF4"/>
<path d="M45.6833 142.29C45.9629 142.29 46.26 142.299 46.5745 142.316C46.889 142.334 47.1992 142.356 47.505 142.382C47.8195 142.408 48.1078 142.443 48.3699 142.487L48.2782 143.299C47.8763 143.282 47.47 143.269 47.0594 143.26C46.6575 143.242 46.2556 143.234 45.8537 143.234C45.4605 143.225 45.1504 143.234 44.9232 143.26C44.696 143.286 44.53 143.356 44.4252 143.469C44.3291 143.583 44.281 143.775 44.281 144.046C44.281 144.378 44.3597 144.597 44.5169 144.701C44.6742 144.806 44.9057 144.894 45.2115 144.964L47.0725 145.383C47.5792 145.505 47.9506 145.693 48.1865 145.946C48.4311 146.2 48.5534 146.597 48.5534 147.139C48.5534 147.663 48.453 148.056 48.252 148.319C48.0598 148.581 47.7627 148.755 47.3608 148.843C46.9589 148.93 46.4478 148.974 45.8275 148.974C45.6003 148.974 45.2596 148.965 44.8052 148.948C44.3597 148.93 43.866 148.878 43.3243 148.79L43.403 147.978C43.6126 147.987 43.8354 148 44.0713 148.017C44.3072 148.026 44.5519 148.03 44.8052 148.03C45.0674 148.03 45.3338 148.03 45.6047 148.03C46.0852 148.03 46.4609 148.008 46.7318 147.965C47.0026 147.921 47.1948 147.838 47.3084 147.716C47.422 147.585 47.4788 147.392 47.4788 147.139C47.4788 146.824 47.387 146.615 47.2036 146.51C47.0201 146.405 46.7754 146.318 46.4696 146.248L44.6349 145.828C44.2854 145.741 44.0058 145.628 43.7961 145.488C43.5864 145.339 43.4335 145.151 43.3374 144.924C43.2413 144.688 43.1933 144.396 43.1933 144.046C43.1933 143.548 43.2806 143.172 43.4554 142.919C43.6301 142.666 43.901 142.495 44.2679 142.408C44.6349 142.321 45.1067 142.281 45.6833 142.29Z" fill="#FBFAF4"/>
<path d="M57.987 142.29C58.5374 142.29 58.9568 142.439 59.2451 142.736C59.5421 143.033 59.6907 143.469 59.6907 144.046V148.83H58.5898V144.361C58.5811 143.967 58.5024 143.684 58.3539 143.509C58.2054 143.325 57.952 143.234 57.5938 143.234C57.3666 143.234 57.1482 143.273 56.9385 143.352C56.7376 143.421 56.5148 143.535 56.2701 143.692C56.0255 143.85 55.7284 144.055 55.379 144.308L55.3134 143.522C55.7765 143.111 56.2264 142.805 56.6633 142.605C57.1002 142.395 57.5414 142.29 57.987 142.29ZM51.1328 142.447L51.2114 143.666L51.3293 143.863V148.83H50.2154V142.447H51.1328ZM53.8063 142.29C54.348 142.29 54.763 142.439 55.0513 142.736C55.3396 143.024 55.4882 143.461 55.4969 144.046V148.83H54.4223V144.361C54.4223 143.95 54.3393 143.662 54.1732 143.496C54.0072 143.321 53.7582 143.234 53.4262 143.234C53.2078 143.234 52.9937 143.269 52.7841 143.338C52.5831 143.408 52.3559 143.522 52.1026 143.679C51.8579 143.836 51.5565 144.046 51.1983 144.308L51.1197 143.522C51.5827 143.111 52.0327 142.805 52.4695 142.605C52.9064 142.395 53.352 142.29 53.8063 142.29Z" fill="#FBFAF4"/>
<path d="M62.8488 142.447V148.83H61.7479V142.447H62.8488ZM62.5605 139.734C62.7876 139.734 62.9012 139.848 62.9012 140.075V140.822C62.9012 141.049 62.7876 141.163 62.5605 141.163H62.0363C61.8091 141.163 61.6955 141.049 61.6955 140.822V140.075C61.6955 139.848 61.8091 139.734 62.0363 139.734H62.5605Z" fill="#FBFAF4"/>
<path d="M67.6723 142.29C67.8645 142.29 68.0785 142.299 68.3144 142.316C68.5503 142.334 68.7906 142.364 69.0352 142.408C69.2886 142.452 69.5201 142.513 69.7298 142.591L69.5857 143.312C69.2973 143.286 68.9916 143.269 68.6683 143.26C68.3537 143.242 68.0829 143.234 67.8557 143.234C67.349 143.234 66.9471 143.303 66.65 143.443C66.353 143.583 66.1389 143.828 66.0079 144.177C65.8768 144.527 65.8113 145.012 65.8113 145.632C65.8113 146.252 65.8768 146.741 66.0079 147.1C66.1389 147.449 66.353 147.694 66.65 147.834C66.9471 147.973 67.349 148.043 67.8557 148.043C67.9868 148.043 68.1572 148.039 68.3669 148.03C68.5765 148.021 68.7993 148.008 69.0352 147.991C69.2799 147.973 69.5114 147.947 69.7298 147.912L69.8478 148.659C69.5245 148.773 69.1707 148.856 68.7862 148.908C68.4105 148.961 68.0348 148.987 67.6592 148.987C66.9252 148.987 66.3355 148.878 65.8899 148.659C65.4443 148.441 65.121 148.087 64.9201 147.598C64.7279 147.108 64.6318 146.453 64.6318 145.632C64.6318 144.811 64.7323 144.155 64.9332 143.666C65.1342 143.177 65.4574 142.827 65.903 142.618C66.3486 142.399 66.9383 142.29 67.6723 142.29Z" fill="#FBFAF4"/>
<path d="M75.6448 140.56V147.073C75.6448 147.379 75.7104 147.598 75.8414 147.729C75.9725 147.86 76.1953 147.925 76.5098 147.925H77.4796L77.6107 148.777C77.4709 148.812 77.3092 148.843 77.1258 148.869C76.9423 148.895 76.7632 148.913 76.5884 148.921C76.4137 148.939 76.2739 148.948 76.169 148.948C75.6361 148.948 75.2298 148.799 74.9502 148.502C74.6707 148.205 74.5309 147.777 74.5309 147.218V140.56H75.6448ZM77.6762 142.447V143.325H73.3776V142.513L74.6357 142.447H77.6762Z" fill="#FBFAF4"/>
<path d="M79.9023 142.447L80.0464 143.666L80.1513 143.863V148.83H79.0373V142.447H79.9023ZM83.0345 142.29L82.9035 143.338H82.5365C82.1608 143.338 81.7851 143.417 81.4094 143.574C81.0337 143.723 80.575 143.937 80.0333 144.216L79.9416 143.522C80.4134 143.137 80.8852 142.836 81.357 142.618C81.8375 142.399 82.3006 142.29 82.7462 142.29H83.0345Z" fill="#FBFAF4"/>
<path d="M87.3117 142.29C87.7835 142.29 88.1811 142.356 88.5043 142.487C88.8363 142.609 89.0853 142.819 89.2514 143.116C89.4174 143.413 89.5004 143.819 89.5004 144.334V148.83H88.6223L88.4519 147.44L88.3733 147.296V144.334C88.3733 143.941 88.2815 143.662 88.0981 143.496C87.9233 143.321 87.5826 143.234 87.0758 143.234C86.7438 143.234 86.3244 143.251 85.8177 143.286C85.3197 143.321 84.826 143.36 84.3368 143.404L84.2319 142.578C84.529 142.526 84.8523 142.478 85.2017 142.434C85.56 142.39 85.9225 142.356 86.2895 142.329C86.6565 142.303 86.9972 142.29 87.3117 142.29ZM88.9761 144.898L88.963 145.737L85.9094 145.75C85.6036 145.759 85.3896 145.842 85.2673 145.999C85.1449 146.147 85.0838 146.357 85.0838 146.628V147.034C85.0838 147.366 85.1624 147.611 85.3197 147.768C85.477 147.917 85.7303 147.991 86.0798 147.991C86.3244 147.991 86.5997 147.947 86.9055 147.86C87.22 147.764 87.5345 147.62 87.8491 147.427C88.1636 147.235 88.4519 146.99 88.714 146.693V147.519C88.6179 147.641 88.4781 147.786 88.2946 147.952C88.1199 148.109 87.9058 148.266 87.6525 148.423C87.4078 148.572 87.1326 148.699 86.8268 148.803C86.5298 148.9 86.2065 148.948 85.857 148.948C85.4813 148.948 85.1493 148.882 84.861 148.751C84.5727 148.611 84.3455 148.41 84.1795 148.148C84.0222 147.877 83.9436 147.55 83.9436 147.165V146.471C83.9436 145.973 84.0965 145.588 84.4023 145.317C84.7168 145.038 85.1537 144.898 85.7129 144.898H88.9761Z" fill="#FBFAF4"/>
<path d="M97.1648 142.447L94.8321 148.554C94.7971 148.642 94.7447 148.712 94.6748 148.764C94.6136 148.808 94.535 148.83 94.4389 148.83H93.4298C93.3424 148.83 93.2638 148.808 93.1939 148.764C93.124 148.712 93.0715 148.642 93.0366 148.554L90.7038 142.447H91.8964L93.4691 146.916C93.539 147.1 93.6045 147.288 93.6657 147.48C93.7268 147.672 93.788 147.855 93.8491 148.03H94.0195C94.0894 147.847 94.1549 147.663 94.2161 147.48C94.286 147.288 94.3515 147.1 94.4127 146.916L95.9853 142.447H97.1648Z" fill="#FBFAF4"/>
<path d="M100.984 142.29C101.945 142.29 102.64 142.465 103.068 142.814C103.505 143.164 103.723 143.684 103.723 144.374C103.732 144.942 103.614 145.387 103.369 145.711C103.125 146.025 102.736 146.182 102.203 146.182H98.4808V145.317H101.914C102.203 145.317 102.391 145.221 102.478 145.029C102.565 144.828 102.609 144.61 102.609 144.374C102.6 143.963 102.478 143.67 102.242 143.496C102.006 143.321 101.604 143.234 101.036 143.234C100.573 143.234 100.206 143.303 99.9355 143.443C99.6734 143.574 99.4856 143.81 99.372 144.151C99.2672 144.483 99.2147 144.95 99.2147 145.553C99.2147 146.235 99.2803 146.755 99.4113 147.113C99.5511 147.471 99.7695 147.716 100.067 147.847C100.364 147.978 100.757 148.043 101.246 148.043C101.587 148.043 101.958 148.03 102.36 148.004C102.771 147.969 103.138 147.93 103.461 147.886L103.579 148.633C103.378 148.712 103.129 148.777 102.832 148.83C102.544 148.882 102.242 148.921 101.928 148.948C101.622 148.974 101.347 148.987 101.102 148.987C100.368 148.987 99.7783 148.878 99.3327 148.659C98.8871 148.432 98.5595 148.074 98.3498 147.585C98.1488 147.087 98.0483 146.431 98.0483 145.619C98.0483 144.78 98.1488 144.12 98.3498 143.64C98.5595 143.151 98.8784 142.805 99.3065 142.605C99.7433 142.395 100.302 142.29 100.984 142.29Z" fill="#FBFAF4"/>
<path d="M106.529 139.656L106.516 147.073C106.516 147.353 106.59 147.567 106.739 147.716C106.896 147.855 107.114 147.925 107.394 147.925H108.01L108.141 148.777C108.062 148.812 107.949 148.843 107.8 148.869C107.66 148.895 107.512 148.913 107.355 148.921C107.206 148.939 107.079 148.948 106.975 148.948C106.503 148.948 106.123 148.808 105.834 148.528C105.555 148.249 105.415 147.847 105.415 147.323V139.656H106.529Z" fill="#FBFAF4"/>
<path d="M111.416 142.29C111.695 142.29 111.992 142.299 112.307 142.316C112.621 142.334 112.932 142.356 113.237 142.382C113.552 142.408 113.84 142.443 114.102 142.487L114.011 143.299C113.609 143.282 113.202 143.269 112.792 143.26C112.39 143.242 111.988 143.234 111.586 143.234C111.193 143.225 110.883 143.234 110.656 143.26C110.429 143.286 110.262 143.356 110.158 143.469C110.062 143.583 110.013 143.775 110.013 144.046C110.013 144.378 110.092 144.597 110.249 144.701C110.407 144.806 110.638 144.894 110.944 144.964L112.805 145.383C113.312 145.505 113.683 145.693 113.919 145.946C114.164 146.2 114.286 146.597 114.286 147.139C114.286 147.663 114.185 148.056 113.984 148.319C113.792 148.581 113.495 148.755 113.093 148.843C112.691 148.93 112.18 148.974 111.56 148.974C111.333 148.974 110.992 148.965 110.538 148.948C110.092 148.93 109.598 148.878 109.057 148.79L109.135 147.978C109.345 147.987 109.568 148 109.804 148.017C110.04 148.026 110.284 148.03 110.538 148.03C110.8 148.03 111.066 148.03 111.337 148.03C111.818 148.03 112.193 148.008 112.464 147.965C112.735 147.921 112.927 147.838 113.041 147.716C113.154 147.585 113.211 147.392 113.211 147.139C113.211 146.824 113.12 146.615 112.936 146.51C112.753 146.405 112.508 146.318 112.202 146.248L110.367 145.828C110.018 145.741 109.738 145.628 109.529 145.488C109.319 145.339 109.166 145.151 109.07 144.924C108.974 144.688 108.926 144.396 108.926 144.046C108.926 143.548 109.013 143.172 109.188 142.919C109.363 142.666 109.633 142.495 110 142.408C110.367 142.321 110.839 142.281 111.416 142.29Z" fill="#FBFAF4"/>
</svg>
