<svg width="1064" height="311" viewBox="0 0 1064 311" fill="none" xmlns="http://www.w3.org/2000/svg">
<path d="M366.682 141.404H404.089L411.426 154.986H365.752C360.654 154.986 356.624 153.065 353.662 149.224C351.802 146.823 350.872 144.147 350.872 141.198V76.7855H366.682V141.404Z" fill="#FBFAF4"/>
<path d="M416.903 76.7855H432.816V125.249C432.816 130.668 434.78 134.99 438.706 138.214C441.255 140.34 444.114 141.404 447.283 141.404H455.757C460.51 141.404 464.333 139.311 467.227 135.127C469.293 132.177 470.327 128.885 470.327 125.249V76.7855H486.137V125.249C486.137 133.618 483.106 140.718 477.043 146.548C471.05 152.173 463.954 154.986 455.757 154.986H447.283C438.741 154.986 431.473 151.967 425.479 145.931C419.762 140.169 416.903 133.275 416.903 125.249V76.7855Z" fill="#FBFAF4"/>
<path d="M516.104 76.271C521.891 76.271 526.575 79.6322 530.157 86.3547C530.709 87.4522 531.294 88.687 531.914 90.0589L553.924 141.712V76.7855H569.735V141.712C569.735 146.102 567.634 149.704 563.431 152.516C560.469 154.505 557.266 155.5 553.821 155.5C548.034 155.5 543.35 152.139 539.768 145.416C539.216 144.319 538.631 143.084 538.011 141.712L516.001 90.0589V154.986H500.19V90.0589C500.19 85.6687 502.292 82.0674 506.494 79.2549C509.456 77.2656 512.659 76.271 516.104 76.271Z" fill="#FBFAF4"/>
<path d="M634.732 144.593H600.322L608.795 131.011H629.979L616.545 92.6313L594.638 154.986H577.691L600.735 89.5444C604.111 80.4211 609.381 75.8251 616.545 75.7565C623.71 75.8251 628.945 80.4211 632.252 89.5444L655.399 154.986H638.452L634.732 144.593Z" fill="#FBFAF4"/>
<path d="M679.993 90.3676V154.986H664.182V90.5734C664.182 85.9088 666.18 82.2046 670.176 79.4607C672.863 77.6772 675.825 76.7855 679.063 76.7855H700.453C710.029 76.7855 717.71 79.6322 723.497 85.3257C728.388 90.1961 730.833 96.1983 730.833 103.332V106.316C730.833 115.234 727.286 122.162 720.19 127.101C717.503 128.953 714.541 130.359 711.303 131.32L732.59 154.986H712.853L693.22 132.863H681.026L689.499 119.281H700.453C706.929 119.281 711.303 117.052 713.576 112.593C714.472 110.741 714.92 108.649 714.92 106.316V103.332C714.92 97.1587 712.13 93.1458 706.55 91.2937C704.69 90.6763 702.657 90.3676 700.453 90.3676H679.993Z" fill="#FBFAF4"/>
<path d="M791.594 141.404H829.001L836.338 154.986H790.664C785.566 154.986 781.536 153.065 778.574 149.224C776.714 146.823 775.784 144.147 775.784 141.198V76.7855H791.594V141.404Z" fill="#FBFAF4"/>
<path d="M857.418 123.088V141.404H897.926L905.366 154.986H856.488C851.459 154.986 847.429 153.099 844.398 149.326C842.469 146.857 841.505 144.147 841.505 141.198V90.5734C841.505 85.9774 843.503 82.3075 847.498 79.5636C850.185 77.7115 853.182 76.7855 856.488 76.7855H905.366L897.926 90.3676H857.418V109.506H894.722V123.088H857.418Z" fill="#FBFAF4"/>
<path d="M967.056 144.593H932.646L941.119 131.011H962.303L948.87 92.6313L926.963 154.986H910.016L933.059 89.5444C936.435 80.4211 941.705 75.8251 948.87 75.7565C956.034 75.8251 961.27 80.4211 964.576 89.5444L987.723 154.986H970.776L967.056 144.593Z" fill="#FBFAF4"/>
<path d="M1012.32 90.3676V154.986H996.507V90.5734C996.507 85.9088 998.505 82.2046 1002.5 79.4607C1005.19 77.6772 1008.15 76.7855 1011.39 76.7855H1032.78C1042.35 76.7855 1050.03 79.6322 1055.82 85.3257C1060.71 90.1961 1063.16 96.1983 1063.16 103.332V106.316C1063.16 115.165 1059.61 122.094 1052.51 127.101C1047 130.943 1040.42 132.863 1032.78 132.863H1013.35L1021.82 119.281H1032.78C1039.25 119.281 1043.63 117.052 1045.9 112.593C1046.8 110.741 1047.24 108.649 1047.24 106.316V103.332C1047.24 97.1587 1044.45 93.1458 1038.87 91.2937C1037.01 90.6763 1034.98 90.3676 1032.78 90.3676H1012.32Z" fill="#FBFAF4"/>
<path d="M449.029 191.172C450.193 191.172 451.489 191.224 452.918 191.329C454.346 191.433 455.802 191.616 457.283 191.877C458.818 192.138 460.22 192.503 461.49 192.973L460.617 197.279C458.87 197.122 457.019 197.018 455.061 196.966C453.156 196.861 451.516 196.809 450.14 196.809C447.071 196.809 444.637 197.226 442.838 198.062C441.039 198.897 439.743 200.358 438.949 202.446C438.155 204.534 437.758 207.43 437.758 211.136C437.758 214.842 438.155 217.764 438.949 219.904C439.743 221.992 441.039 223.454 442.838 224.289C444.637 225.124 447.071 225.541 450.14 225.541C450.934 225.541 451.965 225.515 453.235 225.463C454.505 225.411 455.854 225.332 457.283 225.228C458.765 225.124 460.167 224.967 461.49 224.758L462.204 229.221C460.246 229.899 458.103 230.395 455.775 230.708C453.5 231.022 451.225 231.178 448.949 231.178C444.505 231.178 440.933 230.526 438.235 229.221C435.536 227.916 433.578 225.802 432.361 222.879C431.197 219.957 430.615 216.042 430.615 211.136C430.615 206.23 431.224 202.315 432.441 199.392C433.658 196.47 435.615 194.382 438.314 193.129C441.013 191.824 444.584 191.172 449.029 191.172Z" fill="#FBFAF4"/>
<path d="M487.082 191.172C491.526 191.172 495.071 191.824 497.717 193.129C500.416 194.434 502.347 196.574 503.511 199.549C504.675 202.472 505.257 206.36 505.257 211.214C505.257 216.068 504.675 219.983 503.511 222.958C502.347 225.88 500.416 227.994 497.717 229.299C495.071 230.604 491.526 231.256 487.082 231.256C482.69 231.256 479.145 230.604 476.446 229.299C473.801 227.994 471.869 225.88 470.652 222.958C469.488 219.983 468.906 216.068 468.906 211.214C468.906 206.36 469.488 202.472 470.652 199.549C471.869 196.574 473.801 194.434 476.446 193.129C479.145 191.824 482.69 191.172 487.082 191.172ZM487.082 196.809C484.277 196.809 482.055 197.253 480.415 198.14C478.827 198.975 477.69 200.436 477.002 202.524C476.314 204.612 475.97 207.509 475.97 211.214C475.97 214.92 476.314 217.817 477.002 219.904C477.69 221.992 478.827 223.48 480.415 224.367C482.055 225.202 484.277 225.62 487.082 225.62C489.886 225.62 492.108 225.202 493.749 224.367C495.389 223.48 496.553 221.992 497.241 219.904C497.929 217.817 498.273 214.92 498.273 211.214C498.273 207.509 497.929 204.612 497.241 202.524C496.553 200.436 495.389 198.975 493.749 198.14C492.108 197.253 489.886 196.809 487.082 196.809Z" fill="#FBFAF4"/>
<path d="M528.699 191.172C530.392 191.172 532.191 191.224 534.096 191.329C536.001 191.433 537.88 191.564 539.731 191.72C541.636 191.877 543.382 192.085 544.97 192.346L544.414 197.2C541.98 197.096 539.52 197.018 537.033 196.966C534.599 196.861 532.165 196.809 529.731 196.809C527.35 196.757 525.472 196.809 524.096 196.966C522.72 197.122 521.715 197.54 521.08 198.218C520.498 198.897 520.207 200.045 520.207 201.663C520.207 203.646 520.683 204.951 521.635 205.577C522.588 206.204 523.99 206.726 525.842 207.143L537.112 209.648C540.181 210.379 542.43 211.501 543.859 213.015C545.34 214.528 546.081 216.903 546.081 220.139C546.081 223.271 545.472 225.62 544.256 227.185C543.091 228.751 541.292 229.795 538.858 230.317C536.424 230.839 533.329 231.1 529.572 231.1C528.197 231.1 526.133 231.048 523.382 230.943C520.683 230.839 517.693 230.526 514.413 230.004L514.889 225.15C516.159 225.202 517.508 225.28 518.937 225.385C520.366 225.437 521.847 225.463 523.382 225.463C524.969 225.463 526.583 225.463 528.223 225.463C531.133 225.463 533.408 225.332 535.049 225.071C536.689 224.811 537.853 224.315 538.541 223.584C539.229 222.801 539.573 221.653 539.573 220.139C539.573 218.26 539.017 217.008 537.906 216.381C536.795 215.755 535.313 215.233 533.461 214.816L522.35 212.31C520.233 211.788 518.54 211.11 517.27 210.275C516 209.387 515.074 208.265 514.492 206.908C513.91 205.499 513.619 203.751 513.619 201.663C513.619 198.688 514.148 196.444 515.207 194.93C516.265 193.416 517.905 192.399 520.127 191.877C522.35 191.355 525.207 191.12 528.699 191.172Z" fill="#FBFAF4"/>
<path d="M603.211 191.172C606.545 191.172 609.085 192.059 610.831 193.834C612.63 195.608 613.529 198.218 613.529 201.663V230.239H606.862V203.542C606.81 201.193 606.333 199.497 605.434 198.453C604.534 197.357 603 196.809 600.83 196.809C599.455 196.809 598.132 197.044 596.862 197.514C595.645 197.931 594.296 198.61 592.814 199.549C591.333 200.489 589.534 201.715 587.417 203.229L587.02 198.531C589.825 196.078 592.55 194.251 595.195 193.051C597.841 191.798 600.513 191.172 603.211 191.172ZM561.702 192.112L562.178 199.392L562.892 200.567V230.239H556.146V192.112H561.702ZM577.893 191.172C581.173 191.172 583.687 192.059 585.433 193.834C587.179 195.556 588.079 198.166 588.131 201.663V230.239H581.623V203.542C581.623 201.089 581.121 199.366 580.115 198.375C579.11 197.331 577.602 196.809 575.591 196.809C574.268 196.809 572.972 197.018 571.702 197.435C570.485 197.853 569.109 198.531 567.575 199.471C566.093 200.41 564.268 201.663 562.099 203.229L561.622 198.531C564.427 196.078 567.152 194.251 569.797 193.051C572.443 191.798 575.141 191.172 577.893 191.172Z" fill="#FBFAF4"/>
<path d="M632.655 192.112V230.239H625.988V192.112H632.655ZM630.909 175.906C632.285 175.906 632.973 176.584 632.973 177.941V182.404C632.973 183.761 632.285 184.439 630.909 184.439H627.734C626.359 184.439 625.671 183.761 625.671 182.404V177.941C625.671 176.584 626.359 175.906 627.734 175.906H630.909Z" fill="#FBFAF4"/>
<path d="M661.867 191.172C663.031 191.172 664.327 191.224 665.756 191.329C667.184 191.433 668.639 191.616 670.121 191.877C671.655 192.138 673.058 192.503 674.328 192.973L673.454 197.279C671.708 197.122 669.856 197.018 667.899 196.966C665.994 196.861 664.354 196.809 662.978 196.809C659.909 196.809 657.475 197.226 655.676 198.062C653.877 198.897 652.581 200.358 651.787 202.446C650.993 204.534 650.596 207.43 650.596 211.136C650.596 214.842 650.993 217.764 651.787 219.904C652.581 221.992 653.877 223.454 655.676 224.289C657.475 225.124 659.909 225.541 662.978 225.541C663.772 225.541 664.803 225.515 666.073 225.463C667.343 225.411 668.692 225.332 670.121 225.228C671.603 225.124 673.005 224.967 674.328 224.758L675.042 229.221C673.084 229.899 670.941 230.395 668.613 230.708C666.338 231.022 664.063 231.178 661.787 231.178C657.343 231.178 653.771 230.526 651.073 229.221C648.374 227.916 646.416 225.802 645.199 222.879C644.035 219.957 643.453 216.042 643.453 211.136C643.453 206.23 644.062 202.315 645.279 199.392C646.496 196.47 648.453 194.382 651.152 193.129C653.85 191.824 657.422 191.172 661.867 191.172Z" fill="#FBFAF4"/>
<path d="M710.149 180.838V219.748C710.149 221.575 710.546 222.879 711.34 223.662C712.134 224.445 713.483 224.837 715.388 224.837H721.261L722.055 229.925C721.208 230.134 720.229 230.317 719.118 230.473C718.007 230.63 716.922 230.734 715.864 230.787C714.806 230.891 713.959 230.943 713.324 230.943C710.097 230.943 707.636 230.056 705.943 228.281C704.25 226.507 703.403 223.949 703.403 220.609V180.838H710.149ZM722.452 192.112V197.357H696.419V192.503L704.038 192.112H722.452Z" fill="#FBFAF4"/>
<path d="M735.933 192.112L736.806 199.392L737.441 200.567V230.239H730.695V192.112H735.933ZM754.902 191.172L754.108 197.435H751.886C749.611 197.435 747.336 197.905 745.06 198.844C742.785 199.732 740.007 201.01 736.727 202.681L736.171 198.531C739.028 196.235 741.886 194.434 744.743 193.129C747.653 191.824 750.458 191.172 753.156 191.172H754.902Z" fill="#FBFAF4"/>
<path d="M780.805 191.172C783.663 191.172 786.07 191.564 788.028 192.346C790.039 193.077 791.547 194.33 792.552 196.104C793.557 197.879 794.06 200.306 794.06 203.385V230.239H788.742L787.71 221.94L787.234 221.079V203.385C787.234 201.037 786.679 199.366 785.568 198.375C784.509 197.331 782.446 196.809 779.377 196.809C777.366 196.809 774.826 196.913 771.757 197.122C768.741 197.331 765.752 197.566 762.789 197.827L762.154 192.894C763.953 192.581 765.911 192.294 768.027 192.033C770.197 191.772 772.392 191.564 774.615 191.407C776.837 191.25 778.901 191.172 780.805 191.172ZM790.885 206.752L790.806 211.762L772.313 211.841C770.461 211.893 769.165 212.389 768.424 213.328C767.683 214.215 767.313 215.468 767.313 217.086V219.513C767.313 221.496 767.789 222.958 768.741 223.897C769.694 224.784 771.228 225.228 773.345 225.228C774.826 225.228 776.493 224.967 778.345 224.445C780.25 223.871 782.155 223.01 784.06 221.862C785.964 220.713 787.711 219.252 789.298 217.477V222.41C788.716 223.14 787.869 224.002 786.758 224.993C785.7 225.933 784.404 226.872 782.869 227.812C781.387 228.699 779.721 229.456 777.869 230.082C776.07 230.656 774.112 230.943 771.996 230.943C769.72 230.943 767.71 230.552 765.964 229.769C764.217 228.934 762.842 227.733 761.836 226.168C760.884 224.55 760.408 222.592 760.408 220.296V216.146C760.408 213.171 761.334 210.875 763.186 209.257C765.09 207.587 767.736 206.752 771.122 206.752H790.885Z" fill="#FBFAF4"/>
<path d="M840.477 192.112L826.349 228.595C826.138 229.116 825.82 229.534 825.397 229.847C825.027 230.108 824.55 230.239 823.968 230.239H817.857C817.328 230.239 816.852 230.108 816.428 229.847C816.005 229.534 815.687 229.116 815.476 228.595L801.348 192.112H808.571L818.095 218.808C818.518 219.904 818.915 221.027 819.286 222.175C819.656 223.323 820.026 224.419 820.397 225.463H821.428C821.852 224.367 822.249 223.271 822.619 222.175C823.042 221.027 823.439 219.904 823.81 218.808L833.334 192.112H840.477Z" fill="#FBFAF4"/>
<path d="M863.606 191.172C869.426 191.172 873.633 192.216 876.226 194.304C878.871 196.391 880.194 199.497 880.194 203.62C880.247 207.013 879.533 209.675 878.051 211.606C876.57 213.485 874.215 214.424 870.987 214.424H848.447V209.257H869.241C870.987 209.257 872.125 208.683 872.654 207.535C873.183 206.334 873.448 205.029 873.448 203.62C873.395 201.167 872.654 199.419 871.225 198.375C869.797 197.331 867.363 196.809 863.924 196.809C861.119 196.809 858.897 197.226 857.257 198.062C855.669 198.844 854.532 200.254 853.844 202.289C853.209 204.273 852.891 207.065 852.891 210.666C852.891 214.737 853.288 217.843 854.082 219.983C854.928 222.123 856.251 223.584 858.05 224.367C859.849 225.15 862.23 225.541 865.193 225.541C867.257 225.541 869.506 225.463 871.94 225.306C874.427 225.098 876.649 224.863 878.607 224.602L879.321 229.064C878.104 229.534 876.596 229.925 874.797 230.239C873.051 230.552 871.225 230.787 869.321 230.943C867.469 231.1 865.802 231.178 864.32 231.178C859.876 231.178 856.304 230.526 853.606 229.221C850.907 227.864 848.923 225.724 847.653 222.801C846.436 219.826 845.827 215.912 845.827 211.058C845.827 206.047 846.436 202.107 847.653 199.236C848.923 196.313 850.854 194.251 853.447 193.051C856.092 191.798 859.479 191.172 863.606 191.172Z" fill="#FBFAF4"/>
<path d="M897.188 175.436L897.108 219.748C897.108 221.418 897.558 222.697 898.458 223.584C899.41 224.419 900.733 224.837 902.426 224.837H906.156L906.95 229.925C906.474 230.134 905.786 230.317 904.886 230.473C904.04 230.63 903.14 230.734 902.188 230.787C901.288 230.891 900.521 230.943 899.886 230.943C897.029 230.943 894.727 230.108 892.981 228.438C891.288 226.768 890.441 224.367 890.441 221.235V175.436H897.188Z" fill="#FBFAF4"/>
<path d="M926.782 191.172C928.475 191.172 930.274 191.224 932.179 191.329C934.084 191.433 935.963 191.564 937.814 191.72C939.719 191.877 941.465 192.085 943.053 192.346L942.497 197.2C940.063 197.096 937.603 197.018 935.116 196.966C932.682 196.861 930.248 196.809 927.814 196.809C925.433 196.757 923.555 196.809 922.179 196.966C920.803 197.122 919.798 197.54 919.163 198.218C918.581 198.897 918.29 200.045 918.29 201.663C918.29 203.646 918.766 204.951 919.718 205.577C920.671 206.204 922.073 206.726 923.925 207.143L935.195 209.648C938.264 210.379 940.513 211.501 941.942 213.015C943.423 214.528 944.164 216.903 944.164 220.139C944.164 223.271 943.555 225.62 942.338 227.185C941.174 228.751 939.375 229.795 936.941 230.317C934.507 230.839 931.412 231.1 927.655 231.1C926.28 231.1 924.216 231.048 921.465 230.943C918.766 230.839 915.776 230.526 912.496 230.004L912.972 225.15C914.242 225.202 915.591 225.28 917.02 225.385C918.448 225.437 919.93 225.463 921.465 225.463C923.052 225.463 924.666 225.463 926.306 225.463C929.216 225.463 931.491 225.332 933.132 225.071C934.772 224.811 935.936 224.315 936.624 223.584C937.312 222.801 937.656 221.653 937.656 220.139C937.656 218.26 937.1 217.008 935.989 216.381C934.878 215.755 933.396 215.233 931.544 214.816L920.433 212.31C918.316 211.788 916.623 211.11 915.353 210.275C914.083 209.387 913.157 208.265 912.575 206.908C911.993 205.499 911.702 203.751 911.702 201.663C911.702 198.688 912.231 196.444 913.29 194.93C914.348 193.416 915.988 192.399 918.21 191.877C920.433 191.355 923.29 191.12 926.782 191.172Z" fill="#FBFAF4"/>
<path d="M288.509 164.344C288.509 195.127 278.662 225.103 260.407 249.889C242.152 274.675 216.447 292.972 187.05 302.104C157.653 311.237 126.106 310.726 97.0197 300.646C67.9338 290.567 42.8349 271.447 25.3925 246.083C7.95004 220.718 -0.921218 190.439 0.0756622 159.673C1.07254 128.906 11.8853 99.2647 30.9331 75.0827C49.9809 50.9007 76.2648 33.446 105.942 25.2704C135.62 17.0949 167.134 18.6272 195.878 29.6434L144.254 164.344H288.509Z" fill="#FFDE5A"/>
<path d="M191.144 28.675C168.949 24.7631 146.175 26.8798 125.135 34.8103C104.095 42.7408 85.5366 56.2027 71.3451 73.8293C57.1537 91.4558 47.8342 112.619 44.3327 135.171C40.8312 157.723 43.2725 180.86 51.4087 202.234C59.5449 223.608 73.0863 242.456 90.6581 256.867C108.23 271.277 129.206 280.736 151.458 284.283C173.709 287.83 196.443 285.339 217.352 277.062C238.261 268.786 256.6 255.019 270.507 237.159L170.282 156.308L191.144 28.675Z" fill="#211F1E"/>
<path d="M72.2982 186.731C92.991 251.655 160.356 287.75 222.762 267.351C249.619 258.572 271.18 240.762 285.381 218.145L197.188 27.3694C181.018 25.4165 164.251 26.8722 147.827 32.2406C85.4209 52.6395 51.6054 121.807 72.2982 186.731Z" fill="#FBFAF4"/>
<path d="M143.401 119.463L142.628 120.779C141.779 120.011 142.142 119.558 143.401 119.463L197.144 27.9928L204.442 38.2071C292.752 54.4882 332.703 117.187 284.377 216.144L262.014 230.245L187.905 193.412C187.905 193.412 196.807 157.485 184.947 142.415C171.626 125.489 148.916 119.044 143.401 119.463Z" fill="#211F1E"/>
<circle cx="164.419" cy="156.93" r="45.0114" transform="rotate(-15.2269 164.419 156.93)" fill="#FBFAF4"/>
<circle cx="164.407" cy="156.557" r="23.4222" transform="rotate(-7.46573 164.407 156.557)" fill="#211F1E"/>
</svg>
